<?xml version="1.0" ?><svg viewBox="0 0 64 64" xmlns="http://www.w3.org/2000/svg"><defs><style>.cls-1{fill:#646467;}.cls-2{fill:#87868a;}.cls-3{fill:#2d2d2d;}.cls-4{fill:#434347;}</style></defs><title/><g id="bufalo"><path class="cls-1" d="M57,26v2H52a7.85,7.85,0,0,1-4-1.08,6,6,0,0,0-3.14-5.2,4.52,4.52,0,0,1-.77-.52,1.07,1.07,0,0,1-.23-.2H50a6.92,6.92,0,0,0,4-1.25A8,8,0,0,1,57,26Z"/><path class="cls-1" d="M20.14,21a1.07,1.07,0,0,1-.23.2,4.52,4.52,0,0,1-.77.52A6,6,0,0,0,16,26.92,7.85,7.85,0,0,1,12,28H7V26a8,8,0,0,1,3-6.25A6.92,6.92,0,0,0,14,21Z"/><path class="cls-1" d="M44,51a5.94,5.94,0,0,1-1.76,4.24,5.75,5.75,0,0,1-1.24.95A5.86,5.86,0,0,1,38,57H26a5.86,5.86,0,0,1-3-.81,6,6,0,0,1-1.24-9.43A5.69,5.69,0,0,1,23,45.81,5.89,5.89,0,0,1,26,45H38a5.89,5.89,0,0,1,3,.81A6,6,0,0,1,44,51Z"/><path class="cls-2" d="M48,26.92v7.55a6,6,0,0,1-3.24,5.32,7.31,7.31,0,0,0-.76.46V51a6,6,0,0,0-3-5.19A5.89,5.89,0,0,0,38,45H26a5.89,5.89,0,0,0-3,.81,5.69,5.69,0,0,0-1.23.95A5.94,5.94,0,0,0,20,51V40.25a7.31,7.31,0,0,0-.76-.46A6,6,0,0,1,16,34.47V26.92a6,6,0,0,1,3.14-5.2,4.52,4.52,0,0,0,.77-.52,1.07,1.07,0,0,0,.23-.2.75.75,0,0,0,.14-.12A5.93,5.93,0,0,0,22,16.64V15a1.66,1.66,0,0,1,0-.32,1.9,1.9,0,0,1,.24-.68A2,2,0,0,1,24,13H40a2,2,0,0,1,1.73,1,1.9,1.9,0,0,1,.24.68A1.66,1.66,0,0,1,42,15v1.64a5.93,5.93,0,0,0,1.72,4.24.75.75,0,0,0,.14.12,1.07,1.07,0,0,0,.23.2,4.52,4.52,0,0,0,.77.52A6,6,0,0,1,48,26.92Z"/><circle class="cls-3" cx="25.5" cy="29.5" r="1.5"/><circle class="cls-3" cx="38.5" cy="29.5" r="1.5"/><path class="cls-4" d="M22.27,14a1.9,1.9,0,0,0-.24.68A1.66,1.66,0,0,0,22,15v1.64a5.93,5.93,0,0,1-1.72,4.24.75.75,0,0,1-.14.12H14a6.92,6.92,0,0,1-4-1.25,7.27,7.27,0,0,1-1-.8A7,7,0,0,1,7,14V7l2.39,4.79A4,4,0,0,0,13,14Z"/><path class="cls-4" d="M57,7v7A7,7,0,0,1,55,19a7.27,7.27,0,0,1-1,.8A6.92,6.92,0,0,1,50,21H43.86a.75.75,0,0,1-.14-.12A5.93,5.93,0,0,1,42,16.64V15a1.66,1.66,0,0,0,0-.32,1.9,1.9,0,0,0-.24-.68H51a4,4,0,0,0,3.58-2.21Z"/><circle class="cls-4" cx="27.5" cy="51.5" r="1.5"/><circle class="cls-4" cx="36.5" cy="51.5" r="1.5"/></g></svg>