<?xml version="1.0" ?><svg baseProfile="basic" id="Layer_1" version="1.1" viewBox="0 0 80 80" xml:space="preserve" xmlns="http://www.w3.org/2000/svg" xmlns:xlink="http://www.w3.org/1999/xlink"><g><path d="M24.5,61.8c-6.5,4-6.9,8.7,1.4,13.2c9.2,4.9,14.6,3.9,21.7-0.3c6.2-3.6,4.8-8.5-5.7-12.8   C33.5,58.6,29.1,59,24.5,61.8z" opacity="0.2"/><path d="M39.7,61.7c-0.1,1.1-1.5,7.6-2.3,8.7c-0.8,1.1-5.8,4.2-5.8,4.2l5.2-1.7L38,76l0.7-3.4l4.1-1.8l-3.4-0.3   c0,0,1.5-4.9,1.9-6.2s0.6-2.5,0.6-2.5L39.7,61.7z" fill="#BAA794"/><path d="M32.6,58.1c0,0-1.7,7.3-2.1,8.1c-0.4,0.9-6.1,3.6-6.1,3.6l5-1.4l0.7,3l1.3-3l4.1-1.3l-3-0.6   c0,0,1.4-5.4,1.8-6.8c0.4-1.4,0.2-1.9,0.2-1.9L32.6,58.1z" fill="#BAA794"/><path d="M25.5,25.8c3.9-2.7,11.7-4.7,16.2-4.3s12.4,2.8,13.5,4.6c1.1,1.9,7.9,16.1,0.4,25.6   c-4.5,5.7-9.1,5.7-9.1,5.7s-1.3,4.9-5.3,4.9c-3.6,0-5.8-3.6-5.8-3.6s-1.5,0.3-3.3-0.1c-1.9-0.4-3.3-2.5-3.3-2.5S19.9,55.5,18,45.7   C15.9,34.7,20.9,29,25.5,25.8z" fill="#825012"/><path d="M41.4,22.3c-0.4-0.7,2-5.8,3.8-11.1C47,5.6,47.4,1.6,49,1.4s1.9,1.5,1.9,1.5S51.4,0.7,53,1s1.3,2.5,1.3,2.5   s0.6-1.1,1.9-0.3c1.3,0.7,0.5,3.2,0.5,3.2s0.9-1.1,2-0.4c1.6,0.9,1.7,8.8,1.2,13.7C59.2,26.9,57.7,32,57.7,32s-3.7-6.2-7.8-7   S42.3,24.1,41.4,22.3z" fill="#762C07"/><path d="M20.2,16.9c0.6-1,2.7-3.4,5.3-2.3s4.6,4.2,6.4,7.7c1.8,3.5,2.1,5.4,4,6.9c1.1,0.9,5.2,2.6,5.2,2.6l-6.4,0.6   l0.2,4.1l-5-2.1l-1.5,5.2l-3.5-4.4l-4.1,4.2l-0.1-4.4l-3.5,1.6c0,0,1.2-1.8,1.9-3.3C22.6,25.6,18.3,19.8,20.2,16.9z" fill="#762C07"/><path d="M17.8,18.3c-1.3,0.6-1.8,4.9-1.8,4.9s2-1.4,3.4-1.8C20.9,21,18.9,17.8,17.8,18.3z" fill="#BAA794"/><path d="M19.6,18c1.1,0,0.9-1.3,2.7-2.8c1.5-1.3,2.6-1.8,2.6-2.6c0-1.4-2.5-2-2.7-0.7c-0.1,0.7-1.1-0.5-2,0.3   c-0.8,0.6-0.3,1.5-0.5,1.8c-0.1,0.3-1.4,0.2-1.9,1C17.4,15.8,17.7,18,19.6,18z" fill="#CC291F"/><path d="M19.9,20.5c-1.3,0.4-2.2,2.7-0.5,3.7c1.9,1.2,3-2.8,3-2.8s3.4-2.1,3-3.2c-0.4-1.1-4.9-0.2-4.9-0.2   s-1.8-0.4-2.7,0.3s-0.9,1.1-0.9,1.1s1.2-0.3,2.2,0.2C20.1,20.1,19.9,20.5,19.9,20.5z" fill="#CC291F"/><path d="M23.3,18.2c0.6-0.2,1.1,0.9,0.3,1.1C22.9,19.6,22.5,18.5,23.3,18.2z" fill="#2D3134"/></g></svg>