<?xml version="1.0" ?><svg id="ART" viewBox="0 0 150 150" xmlns="http://www.w3.org/2000/svg"><defs><style>.cls-1,.cls-2{fill:#91592c;}.cls-1,.cls-4,.cls-5,.cls-6,.cls-7{stroke:#000;}.cls-1,.cls-4,.cls-6,.cls-7{stroke-miterlimit:10;}.cls-1,.cls-6{stroke-width:4px;}.cls-3{fill:#683023;}.cls-4{fill:#281614;}.cls-4,.cls-5,.cls-7{stroke-width:2px;}.cls-5{fill:#6d3722;stroke-miterlimit:20;}.cls-6{fill:#5e3730;}.cls-7{fill:#fff;}</style></defs><title/><path class="cls-1" d="M95.88,56.62c-5.17-19.28.43-46.89,16.28-50.8C126.95,30,108.8,45.68,95.88,56.62Z" data-name="&lt;Path&gt;" id="_Path_"/><path class="cls-2" d="M104.94,45.68c3.38-10.35,6.65-23.42,6.06-37.4l.24-.09C120.42,24.35,113.93,36.32,104.94,45.68Z"/><path class="cls-1" d="M54.12,56.62c5.17-19.28-.43-46.89-16.28-50.8C23.05,30,41.2,45.68,54.12,56.62Z" data-name="&lt;Path&gt;" id="_Path_2"/><path class="cls-2" d="M45.06,45.68c-9-9.36-15.48-21.33-6.3-37.49l.24.09C38.41,22.26,41.68,35.33,45.06,45.68Z"/><path class="cls-3" d="M45.06,45.68c-9-9.36-15.48-21.33-6.3-37.49l.24.09C38.41,22.26,41.68,35.33,45.06,45.68Z"/><path class="cls-3" d="M104.94,45.68c3.38-10.35,6.65-23.42,6.06-37.4l.24-.09C120.42,24.35,113.93,36.32,104.94,45.68Z"/><path class="cls-1" d="M110.09,65.15c0,11.09-7.61,29-8.3,42.25C100.91,124.62,84.66,138,75,138S49.09,124.62,48.21,107.4c-.69-13.26-8.3-31.16-8.3-42.25C39.91,46,55.62,24.72,75,24.72S110.09,46,110.09,65.15Z" data-name="&lt;Path&gt;" id="_Path_3"/><path class="cls-4" d="M94.94,127.3c0,9.92-9.58,18.17-19.94,18.17s-19.94-8.26-19.94-18.17,9.58-23.5,19.94-23.5S94.94,117.38,94.94,127.3Z"/><path class="cls-5" d="M75,21.22a28.07,28.07,0,0,1,9.41,1.47c8.73,3.79,6.86,13.85,4.91,19.41C79.24,37,77.06,38.63,83,50.76c-23.5-3-29.34-22.93-18.14-27.73C67.42,21.93,69.75,21.22,75,21.22Z"/><path class="cls-3" d="M108,67.16c-.38,5.06-2,11.37-3.8,18-2,7.55-4.06,15.36-4.42,22.13-.44,8.64-5,16.06-10.34,21.2C91.52,106.56,98.82,76.31,108,67.16Z"/><path class="cls-3" d="M60.55,128.5c-5.37-5.14-9.9-12.56-10.34-21.2-.36-6.77-2.42-14.58-4.42-22.12-1.75-6.65-3.42-13-3.8-18C51.18,76.31,58.48,106.56,60.55,128.5Z"/><path class="cls-3" d="M42,67.16c9.19,9.15,16.49,39.4,18.56,61.34-5.37-5.14-9.9-12.56-10.34-21.2-.36-6.77-2.42-14.58-4.42-22.12C44,78.53,42.37,72.22,42,67.16Z"/><path class="cls-3" d="M108,67.16c-.38,5.06-2,11.37-3.8,18-2,7.55-4.06,15.36-4.42,22.13-.44,8.64-5,16.06-10.34,21.2C91.52,106.56,98.82,76.31,108,67.16Z"/><path class="cls-6" d="M97.26,115.9c0,10.77-10.7,22.82-22.26,22.82s-22.26-12-22.26-22.82,10.7-21,22.26-21S97.26,105.13,97.26,115.9Z"/><ellipse cx="65.68" cy="110.29" rx="4.03" ry="5.8" transform="translate(-26.31 20.76) rotate(-15)"/><ellipse cx="84.32" cy="110.29" rx="5.8" ry="4.03" transform="translate(-44.03 163.2) rotate(-75)"/><path class="cls-7" d="M106.11,68.48c1.25,4.65-.44,9.9-5.23,11.18S91.39,81,90.14,76.32s1.94-8.67,6.19-10.61S104.86,63.82,106.11,68.48Z"/><path d="M98.3,77.62c-1.13.3-4.89,1-5.74-2.12-.68-2.53,1.54-4.73,4-5.86a3.74,3.74,0,0,1,5.38,2.25A4.82,4.82,0,0,1,98.3,77.62Z"/><path class="cls-7" d="M43.72,68.48c-1.25,4.65.44,9.9,5.23,11.18S58.44,81,59.69,76.32s-1.94-8.67-6.19-10.61S45,63.82,43.72,68.48Z"/><path d="M51.53,77.62c1.13.3,4.89,1,5.74-2.12.68-2.53-1.54-4.73-4-5.86a3.74,3.74,0,0,0-5.38,2.25A4.82,4.82,0,0,0,51.53,77.62Z"/></svg>