<?xml version="1.0" ?><svg id="ART" viewBox="0 0 150 150" xmlns="http://www.w3.org/2000/svg"><defs><style>.cls-1{fill:#ccc;}.cls-1,.cls-4,.cls-5,.cls-6,.cls-7{stroke:#000;}.cls-1,.cls-4,.cls-5,.cls-6{stroke-miterlimit:10;}.cls-1,.cls-5{stroke-width:4px;}.cls-2{fill:#b7b7b7;}.cls-3{fill:#424242;}.cls-4,.cls-7{fill:#3f3f3f;}.cls-4,.cls-6,.cls-7{stroke-width:2px;}.cls-5{fill:#666;}.cls-6{fill:#fff;}.cls-7{stroke-linecap:round;stroke-linejoin:round;}</style></defs><title/><path class="cls-1" d="M94.73,61.36c-2.07-23.67,10.2-54.88,29.59-56.19C136.66,36.53,112.14,51.2,94.73,61.36Z" data-name="&lt;Path&gt;" id="_Path_"/><path class="cls-1" d="M55.27,61.36C57.35,37.68,45.08,6.47,25.68,5.16,13.34,36.53,37.86,51.2,55.27,61.36Z" data-name="&lt;Path&gt;" id="_Path_2"/><path class="cls-2" d="M102.5,54.34C104.91,38.66,110.81,20,123,7.46,131.73,31.6,117.29,44.9,102.5,54.34Z"/><path class="cls-2" d="M47.5,54.34C32.71,44.9,18.27,31.6,27,7.46,39.19,20,45.09,38.66,47.5,54.34Z"/><path class="cls-1" d="M112.61,65.35c0,10.58-6.15,22.18-6.94,34.83-1,16.43-20.32,31.11-30.67,31.11s-29.66-14.69-30.67-31.11c-.79-12.66-6.94-24.25-6.94-34.83,0-23.3,16.84-42.19,37.61-42.19S112.61,42.05,112.61,65.35Z" data-name="&lt;Path&gt;" id="_Path_3"/><path class="cls-3" d="M65.48,89.91C60.23,92.51,53.59,98,47.22,105a21.91,21.91,0,0,1-.85-4.47C52.38,95.62,59.11,91.47,65.48,89.91Z"/><path class="cls-3" d="M62.37,85.79c-4.46.9-10.46,4-16.75,8.43-.22-1.26-.47-2.5-.75-3.74C50.82,87.54,57,85.6,62.37,85.79Z"/><path class="cls-3" d="M103.63,100.55a21.91,21.91,0,0,1-.85,4.47c-6.37-7-13-12.51-18.26-15.11C90.89,91.47,97.62,95.62,103.63,100.55Z"/><path class="cls-3" d="M105.13,90.48c-.28,1.24-.53,2.48-.75,3.74-6.29-4.41-12.29-7.53-16.75-8.43C93,85.6,99.18,87.54,105.13,90.48Z"/><path class="cls-4" d="M95.27,127.45c0,10.08-9.74,18.48-20.27,18.48s-20.27-8.39-20.27-18.48,9.74-23.9,20.27-23.9S95.27,117.37,95.27,127.45Z"/><path class="cls-5" d="M98.75,117.3c0,10-11.41,21.08-23.75,21.08S51.25,127.25,51.25,117.3,62.67,97.89,75,97.89,98.75,107.34,98.75,117.3Z"/><path class="cls-6" d="M107.28,69.9c0,4.9-3,9.61-8.08,9.6s-9.66-1.2-9.66-6.1,4.18-9.48,8.87-10.27S107.28,65,107.28,69.9Z"/><path d="M98.43,76.12c-1.19,0-5.08-.26-5.08-3.59,0-2.66,2.76-4.24,5.47-4.7a3.81,3.81,0,0,1,4.69,3.62A4.9,4.9,0,0,1,98.43,76.12Z"/><path class="cls-6" d="M42.72,69.9c0,4.9,3,9.53,8.08,9.54s9.66-1.14,9.66-6-4.18-9.48-8.87-10.27S42.72,65,42.72,69.9Z"/><path d="M51.57,76.12c1.19,0,5.08-.26,5.08-3.59,0-2.66-2.76-4.24-5.47-4.7a3.81,3.81,0,0,0-4.69,3.62A4.9,4.9,0,0,0,51.57,76.12Z"/><path class="cls-3" d="M87.5,42.4c-2.8-2.33-7.39-3.85-12.59-3.85s-9.79,1.52-12.59,3.85c2.23-3.43,7-5.8,12.59-5.8S85.26,39,87.5,42.4Z"/><path class="cls-3" d="M92.71,53.25c-4-3.29-10.45-5.44-17.8-5.44S61.07,50,57.11,53.25c3.16-4.85,9.94-8.2,17.8-8.2S89.55,48.4,92.71,53.25Z"/><ellipse cx="61.44" cy="114.43" rx="4.43" ry="6.39" transform="translate(-27.52 19.8) rotate(-15)"/><ellipse cx="88.56" cy="114.43" rx="6.39" ry="4.43" transform="translate(-44.89 170.35) rotate(-75)"/><path class="cls-7" d="M78,28.39l-1.13,1a2.77,2.77,0,0,1-3.81,0l-1.13-1a3.44,3.44,0,0,1-1-1.73L67.75,13.54a7.14,7.14,0,0,1,3.53-7.18l1.06-.55a5.6,5.6,0,0,1,5.19,0l1.15.59a7.13,7.13,0,0,1,3.57,7.2L79,26.67A3.44,3.44,0,0,1,78,28.39Z"/></svg>